<svg xmlns="http://www.w3.org/2000/svg" width="1252.24" height="1096.98" viewBox="0 0 1252.24 1096.98">
  <g id="Group_222" data-name="Group 222" transform="translate(-7323.492 -1208.623)">
    <path id="Path_288" data-name="Path 288" d="M0,0,190.045,190.046" transform="matrix(-0.934, -0.358, 0.358, -0.934, 7815.838, 1497.293)" fill="none" stroke="#aaa" stroke-width="4"/>
    <path id="Path_288-2" data-name="Path 288" d="M0,0S189.825,159.865,194.088,160.278s182.127,49.065,182.127,49.065" transform="matrix(-0.839, -0.545, 0.545, -0.839, 7640.289, 1682.787)" fill="none" stroke="#aaa" stroke-width="4"/>
    <path id="Path_288-3" data-name="Path 288" d="M0,0,190.045,190.046" transform="matrix(-0.545, -0.839, 0.839, -0.545, 7809.646, 1501.314)" fill="none" stroke="#aaa" stroke-width="4"/>
    <path id="Path_288-4" data-name="Path 288" d="M0,0,190.045,190.046" transform="matrix(-0.819, 0.574, -0.574, -0.819, 7819.769, 1494.553)" fill="none" stroke="#aaa" stroke-width="4"/>
    <path id="Path_288-5" data-name="Path 288" d="M0,0,146.718,158.175" transform="translate(7665.812 1666.212) rotate(-31)" fill="none" stroke="#aaa" stroke-width="4"/>
    <g id="Ellipse_7" data-name="Ellipse 7" transform="translate(7844.834 1715.551) rotate(-31)" fill="#d9d9d9" stroke="#aaa" stroke-width="1">
      <ellipse cx="23.271" cy="23.271" rx="23.271" ry="23.271" stroke="none"/>
      <ellipse cx="23.271" cy="23.271" rx="22.771" ry="22.771" fill="none"/>
    </g>
    <path id="Path_288-6" data-name="Path 288" d="M0,0,190.045,190.046" transform="translate(7613.653 1674.225) rotate(-89)" fill="none" stroke="#aaa" stroke-width="4"/>
    <path id="Path_288-7" data-name="Path 288" d="M0,0,153.435,54.933" transform="matrix(-0.545, -0.839, 0.839, -0.545, 7673.721, 1811.873)" fill="none" stroke="#aaa" stroke-width="4"/>
    <path id="Path_288-8" data-name="Path 288" d="M0,0,190.045,190.046" transform="translate(7682.811 1915.428) rotate(92)" fill="none" stroke="#aaa" stroke-width="4"/>
    <path id="Path_288-9" data-name="Path 288" d="M0,0,291.641,238.607" transform="translate(7915.353 2021.022) rotate(104)" fill="none" stroke="#aaa" stroke-width="4"/>
    <path id="Path_288-10" data-name="Path 288" d="M0,0,190.045,190.046" transform="matrix(-0.616, 0.788, -0.788, -0.616, 7688.629, 1919.974)" fill="none" stroke="#aaa" stroke-width="4"/>
    <path id="Path_288-11" data-name="Path 288" d="M0,0,190.046,190.046" transform="translate(7678.94 1912.604) rotate(36)" fill="none" stroke="#aaa" stroke-width="4"/>
    <path id="Path_288-12" data-name="Path 288" d="M0,0,190.046,190.046" transform="matrix(-0.766, -0.643, 0.643, -0.766, 7891.371, 2002.286)" fill="none" stroke="#aaa" stroke-width="4"/>
    <circle id="Ellipse_7-2" data-name="Ellipse 7" cx="23.271" cy="23.271" r="23.271" transform="matrix(-0.766, -0.643, 0.643, -0.766, 7875.252, 1762.399)" fill="#d9d9d9"/>
    <path id="Path_288-13" data-name="Path 288" d="M0,0,190.045,190.046" transform="translate(7915.929 2048.995) rotate(162)" fill="none" stroke="#aaa" stroke-width="4"/>
    <path id="Path_288-14" data-name="Path 288" d="M0,0,190.045,190.046" transform="matrix(-0.616, 0.788, -0.788, -0.616, 8155.531, 2001.72)" fill="none" stroke="#aaa" stroke-width="4"/>
    <path id="Path_288-15" data-name="Path 288" d="M0,0,190.045,190.046" transform="translate(8062.862 1549.94) rotate(92)" fill="none" stroke="#aaa" stroke-width="4"/>
    <path id="Path_288-16" data-name="Path 288" d="M0,0,291.641,238.607" transform="translate(8295.403 1655.534) rotate(104)" fill="none" stroke="#aaa" stroke-width="4"/>
    <path id="Path_288-17" data-name="Path 288" d="M0,0,123.664,123.664" transform="matrix(-0.616, 0.788, -0.788, -0.616, 8068.68, 1554.487)" fill="none" stroke="#aaa" stroke-width="4"/>
    <path id="Path_288-18" data-name="Path 288" d="M0,0,190.046,190.046" transform="translate(8058.992 1547.117) rotate(36)" fill="none" stroke="#aaa" stroke-width="4"/>
    <path id="Path_288-19" data-name="Path 288" d="M0,0,190.046,190.046" transform="matrix(-0.766, -0.643, 0.643, -0.766, 8271.421, 1636.798)" fill="none" stroke="#aaa" stroke-width="4"/>
    <path id="Path_288-20" data-name="Path 288" d="M0,0,190.045,190.046" transform="translate(8295.98 1683.507) rotate(162)" fill="none" stroke="#aaa" stroke-width="4"/>
    <path id="Path_288-21" data-name="Path 288" d="M0,0,190.045,190.046" transform="matrix(-0.616, 0.788, -0.788, -0.616, 8535.583, 1636.233)" fill="none" stroke="#aaa" stroke-width="4"/>
    <g id="Group_221" data-name="Group 221" transform="translate(7391.635 1208.623)">
      <ellipse id="Ellipse_7-3" data-name="Ellipse 7" cx="28.641" cy="28.641" rx="28.641" ry="28.641" transform="matrix(-0.934, -0.358, 0.358, -0.934, 335.429, 89.328)" fill="#d2a21f"/>
      <ellipse id="Ellipse_7-4" data-name="Ellipse 7" cx="23.271" cy="23.271" rx="23.271" ry="23.271" transform="matrix(-0.839, -0.545, 0.545, -0.839, 69.264, 143.623)" fill="#c8513b"/>
      <ellipse id="Ellipse_7-5" data-name="Ellipse 7" cx="28.641" cy="28.641" rx="28.641" ry="28.641" transform="matrix(-0.545, -0.839, 0.839, -0.545, 463.36, 79.24)" fill="#c8513b"/>
      <ellipse id="Ellipse_7-6" data-name="Ellipse 7" cx="28.641" cy="28.641" rx="28.641" ry="28.641" transform="matrix(-0.819, 0.574, -0.574, -0.819, 213.229, 248.057)" fill="#4c82ce"/>
      <ellipse id="Ellipse_7-7" data-name="Ellipse 7" cx="23.271" cy="23.271" rx="23.271" ry="23.271" transform="translate(398.301 302.11) rotate(-89)" fill="#23b3cd"/>
      <ellipse id="Ellipse_7-8" data-name="Ellipse 7" cx="28.641" cy="28.641" rx="28.641" ry="28.641" transform="matrix(-0.545, -0.839, 0.839, -0.545, 234.059, 494.091)" fill="#2b2f5a"/>
      <ellipse id="Ellipse_10" data-name="Ellipse 10" cx="28.641" cy="28.641" rx="28.641" ry="28.641" transform="matrix(-0.545, -0.839, 0.839, -0.545, 276.199, 644.85)" fill="#4c82ce"/>
      <ellipse id="Ellipse_7-9" data-name="Ellipse 7" cx="28.641" cy="28.641" rx="28.641" ry="28.641" transform="translate(131.596 855.642) rotate(92)" fill="#d2a21f"/>
      <ellipse id="Ellipse_7-10" data-name="Ellipse 7" cx="23.271" cy="23.271" rx="23.271" ry="23.271" transform="translate(243.477 1018.874) rotate(104)" fill="#c8513b"/>
      <ellipse id="Ellipse_7-11" data-name="Ellipse 7" cx="28.641" cy="28.641" rx="28.641" ry="28.641" transform="matrix(-0.616, 0.788, -0.788, -0.616, 80.407, 737.965)" fill="#535998"/>
      <ellipse id="Ellipse_7-12" data-name="Ellipse 7" cx="28.641" cy="28.641" rx="28.641" ry="28.641" transform="translate(321.461 919.506) rotate(36)" fill="#2d79e4"/>
      <ellipse id="Ellipse_7-13" data-name="Ellipse 7" cx="23.271" cy="23.271" rx="23.271" ry="23.271" transform="translate(312.317 726.919) rotate(162)" fill="#cd3d23"/>
      <ellipse id="Ellipse_7-14" data-name="Ellipse 7" cx="28.641" cy="28.641" rx="28.641" ry="28.641" transform="matrix(-0.616, 0.788, -0.788, -0.616, 547.309, 819.711)" fill="#d9d9d9"/>
      <ellipse id="Ellipse_9" data-name="Ellipse 9" cx="28.641" cy="28.641" rx="28.641" ry="28.641" transform="matrix(-0.616, 0.788, -0.788, -0.616, 804.046, 787.677)" fill="#d2a21f"/>
      <ellipse id="Ellipse_7-15" data-name="Ellipse 7" cx="28.641" cy="28.641" rx="28.641" ry="28.641" transform="translate(511.647 490.154) rotate(92)" fill="#dbdbdb"/>
      <ellipse id="Ellipse_7-16" data-name="Ellipse 7" cx="23.271" cy="23.271" rx="23.271" ry="23.271" transform="translate(623.529 653.386) rotate(104)" fill="#d9d9d9"/>
      <ellipse id="Ellipse_7-17" data-name="Ellipse 7" cx="28.641" cy="28.641" rx="28.641" ry="28.641" transform="matrix(-0.616, 0.788, -0.788, -0.616, 543.664, 362.24)" fill="#4c82ce"/>
      <ellipse id="Ellipse_7-18" data-name="Ellipse 7" cx="28.641" cy="28.641" rx="28.641" ry="28.641" transform="translate(701.512 554.019) rotate(36)" fill="#2bb4cc"/>
      <circle id="Ellipse_7-19" data-name="Ellipse 7" cx="23.271" cy="23.271" r="23.271" transform="matrix(-0.766, -0.643, 0.643, -0.766, 863.668, 188.289)" fill="#ce4848"/>
      <ellipse id="Ellipse_7-20" data-name="Ellipse 7" cx="23.271" cy="23.271" rx="23.271" ry="23.271" transform="translate(692.368 361.432) rotate(162)" fill="#5c63ab"/>
      <ellipse id="Ellipse_7-21" data-name="Ellipse 7" cx="28.641" cy="28.641" rx="28.641" ry="28.641" transform="matrix(-0.616, 0.788, -0.788, -0.616, 927.361, 454.223)" fill="#e49057"/>
      <path id="Path_289" data-name="Path 289" d="M28.641,0A28.641,28.641,0,1,1,0,28.641,28.641,28.641,0,0,1,28.641,0Z" transform="matrix(-0.616, 0.788, -0.788, -0.616, 1184.097, 422.189)" fill="#32bf7d"/>
    </g>
  </g>
</svg>
