<svg version="1.1" viewBox="0 0 53.692 104.15" xmlns="http://www.w3.org/2000/svg">
 <g transform="translate(-407.44 -573.64)">
  <g transform="matrix(1.6779 0 0 1.6779 405.76 572.08)">
   <path transform="translate(0,-1)" d="m29 24c0.83 0 1.58 0.34 2.12 0.88s0.88 1.29 0.88 2.12c0 1.66-1.34 3-3 3h-24c-0.83 0-1.58-0.34-2.12-0.88s-0.88-1.29-0.88-2.12c0-1.66 1.34-3 3-3h23z" fill="#e9573f"/>
   <path transform="translate(-.071425 -1.0714)" d="m26 42c0 1.1-0.9 2-2 2s-2-0.9-2-2v-4c0-1.1 0.9-2 2-2 0.55 0 1.05 0.22 1.41 0.59 0.37 0.36 0.59 0.86 0.59 1.41z" fill="#e6e9ed"/>
   <path transform="translate(-.071425 -1.0714)" d="m12 42c0 1.1-0.9 2-2 2s-2-0.9-2-2v-4c0-1.1 0.9-2 2-2 0.55 0 1.05 0.22 1.41 0.59 0.37 0.36 0.59 0.86 0.59 1.41z" fill="#e6e9ed"/>
   <path transform="translate(-.071425 -1.0714)" d="m24.78 5.22c-1.99-1.99-4.74-3.22-7.78-3.22-6.08 0-11 4.92-11 11v11h22v-11c0-3.04-1.23-5.79-3.22-7.78z" fill="#ff826e"/>
   <circle transform="translate(-.071425 -1.0714)" cx="17" cy="13" r="3" fill="#fc6e51"/>
   <path d="m29 23v-10c0-6.617-5.383-12-12-12s-12 5.383-12 12v10c-2.206 0-4 1.794-4 4s1.794 4 4 4h4v4.184c-1.161 0.414-2 1.514-2 2.816v4c0 1.302 0.839 2.402 2 2.816v14.184h2v-14.184c1.161-0.414 2-1.514 2-2.816v-4c0-1.302-0.839-2.402-2-2.816v-4.184h12v4.184c-1.161 0.414-2 1.514-2 2.816v4c0 1.302 0.839 2.402 2 2.816v18.184h2v-18.184c1.161-0.414 2-1.514 2-2.816v-4c0-1.302-0.839-2.402-2-2.816v-4.184h4c2.206 0 4-1.794 4-4s-1.794-4-4-4zm-18 19c0 0.552-0.449 1-1 1s-1-0.448-1-1v-4c0-0.552 0.449-1 1-1s1 0.448 1 1zm14 0c0 0.552-0.449 1-1 1s-1-0.448-1-1v-4c0-0.552 0.449-1 1-1s1 0.448 1 1zm-18-29c0-5.514 4.486-10 10-10s10 4.486 10 10v10h-2v-8c0-1.654-1.346-3-3-3h-1.142c-0.447-1.721-2-3-3.858-3s-3.411 1.279-3.858 3h-1.142c-1.654 0-3 1.346-3 3v8h-2zm6.142 1c0.447 1.721 2 3 3.858 3s3.411-1.279 3.858-3h1.142c0.551 0 1 0.448 1 1v8h-12v-8c0-0.552 0.449-1 1-1zm1.858-1c0-1.103 0.897-2 2-2s2 0.897 2 2-0.897 2-2 2-2-0.897-2-2zm14 16h-24c-1.103 0-2-0.897-2-2s0.897-2 2-2h24c1.103 0 2 0.897 2 2s-0.897 2-2 2z"/>
  </g>
 </g>
</svg>
