<svg width="6.7332mm" height="8.7688mm" version="1.1" viewBox="0 0 25.448 33.142" xmlns="http://www.w3.org/2000/svg">
 <g transform="translate(-372.99 -423.43)">
  <g transform="matrix(.38547 0 0 .38547 237.03 270.39)">
   <g transform="matrix(.64279 0 0 .64279 137.78 157.17)">
    <path d="m416.33 436.18c0-16.731-13.817-30.296-30.549-30.296s-30.745 13.562-30.745 30.296c0 12.346 7.9848 22.963 17.539 27.68v11.966h26.274v-11.966c9.554-4.7173 17.481-15.334 17.481-27.68z" fill="#e45d2f" stroke="#0e0f0e" stroke-width="2.3885"/>
    <g fill="none" stroke-miterlimit="10">
     <path d="m416.33 436.18c0-16.731-13.817-30.296-30.549-30.296s-30.745 13.562-30.745 30.296c0 12.346 7.9848 22.963 17.539 27.68v11.966h26.274v-11.966c9.554-4.7173 17.481-15.334 17.481-27.68z" stroke="#0e0f0e" stroke-width="4.777"/>
     <polygon transform="matrix(2.3885 0 0 2.3885 -2758.7 -5421.4)" points="1322 2478 1322 2473 1311 2473 1311 2478 1313 2478 1313 2481 1320 2481 1320 2478" stroke="#0e0f0e" stroke-width="2"/>
     <path d="m363.21 438.26c0-13.127 10.641-23.768 23.768-23.768" stroke="#fefefe" stroke-width="4.777"/>
     <g stroke="#050505" stroke-width="4.777">
      <line x1="384.52" x2="384.52" y1="385.06" y2="373.12"/>
      <line x1="359.58" x2="348.01" y1="398.03" y2="386.45"/>
      <line x1="348.69" x2="334.36" y1="416.12" y2="416.12"/>
      <line x1="412.17" x2="423.74" y1="398.03" y2="386.45"/>
      <line x1="417.96" x2="437.07" y1="416.12" y2="416.12"/>
     </g>
    </g>
   </g>
  </g>
 </g>
</svg>
