<?xml version="1.0" encoding="UTF-8" standalone="no"?>
<svg
   xmlns:dc="http://purl.org/dc/elements/1.1/"
   xmlns:cc="http://creativecommons.org/ns#"
   xmlns:rdf="http://www.w3.org/1999/02/22-rdf-syntax-ns#"
   xmlns:svg="http://www.w3.org/2000/svg"
   xmlns="http://www.w3.org/2000/svg"
   xmlns:sodipodi="http://sodipodi.sourceforge.net/DTD/sodipodi-0.dtd"
   xmlns:inkscape="http://www.inkscape.org/namespaces/inkscape"
   sodipodi:docname="lightup2.svg"
   width="18.296129mm"
   height="19.815746mm"
   viewBox="0 0 69.150726 74.89416"
   version="1.1"
   id="svg1971"
   inkscape:version="1.0 (4035a4fb49, 2020-05-01)">
  <defs
     id="defs1965" />
  <sodipodi:namedview
     inkscape:window-maximized="0"
     inkscape:window-y="77"
     inkscape:window-x="-248"
     inkscape:window-height="729"
     inkscape:window-width="1274"
     fit-margin-bottom="0"
     fit-margin-right="0"
     fit-margin-left="0"
     fit-margin-top="0"
     id="base"
     pagecolor="#ffffff"
     bordercolor="#666666"
     borderopacity="1.0"
     inkscape:pageopacity="0.0"
     inkscape:pageshadow="2"
     inkscape:zoom="0.98994949"
     inkscape:cx="-44.346776"
     inkscape:cy="13.373342"
     inkscape:document-units="px"
     inkscape:current-layer="layer1"
     inkscape:document-rotation="0"
     showgrid="false" />
  <metadata
     id="metadata1968">
    <rdf:RDF>
      <cc:Work
         rdf:about="">
        <dc:format>image/svg+xml</dc:format>
        <dc:type
           rdf:resource="http://purl.org/dc/dcmitype/StillImage" />
        <dc:title></dc:title>
      </cc:Work>
    </rdf:RDF>
  </metadata>
  <g
     transform="translate(-419.34677,-506.62665)"
     inkscape:label="Layer 1"
     inkscape:groupmode="layer"
     id="layer1">
    <g
       transform="matrix(0.10985088,1.2031992,-1.2031992,0.10985088,3517.3551,-397.85648)"
       id="g3872">
      <line
         style="fill:none;stroke:black;stroke-width:2;stroke-miterlimit:10"
         x1="520.461"
         y1="2565.626"
         x2="529.914"
         y2="2575.0801"
         id="line3844" />
      <line
         style="fill:none;stroke:black;stroke-width:2;stroke-miterlimit:10"
         x1="519.35101"
         y1="2571.3501"
         x2="526.44098"
         y2="2578.4399"
         id="line3846" />
      <line
         style="fill:none;stroke:black;stroke-width:2;stroke-miterlimit:10"
         x1="517.16699"
         y1="2576.2319"
         x2="525.60797"
         y2="2584.6731"
         id="line3848" />
      <rect
         x="523.95398"
         y="2583.696"
         transform="matrix(0.7071,-0.7071,0.7071,0.7071,-1672.9465,1136.5416)"
         style="fill:#ffc007"
         width="23"
         height="8"
         id="rect3850" />
      <rect
         x="523.95398"
         y="2583.696"
         transform="matrix(0.7071,-0.7071,0.7071,0.7071,-1672.9465,1136.5416)"
         style="fill:none;stroke:black;stroke-width:2;stroke-miterlimit:10"
         width="23"
         height="8"
         id="rect3852" />
      <rect
         x="532.25702"
         y="2589.499"
         transform="matrix(0.7071,-0.7071,0.7071,0.7071,-1675.1432,1141.8448)"
         style="fill:#d5160e"
         width="17"
         height="7"
         id="rect3854" />
      <rect
         x="532.25702"
         y="2589.499"
         transform="matrix(0.7071,-0.7071,0.7071,0.7071,-1675.1432,1141.8448)"
         style="fill:none;stroke:black;stroke-width:2;stroke-miterlimit:10"
         width="17"
         height="7"
         id="rect3856" />
      <rect
         x="550.021"
         y="2592.5549"
         transform="matrix(-0.7071,0.7071,-0.7071,-0.7071,2795.4207,4059.2097)"
         style="fill:none;stroke:black;stroke-width:2;stroke-miterlimit:10"
         width="14"
         height="32"
         id="rect3858" />
      <rect
         x="559.91998"
         y="2616.4551"
         transform="matrix(-0.7071,0.7071,-0.7071,-0.7071,2819.3201,4069.1091)"
         style="fill:#ffc007"
         width="14"
         height="4"
         id="rect3860" />
      <rect
         x="559.91998"
         y="2616.4551"
         transform="matrix(-0.7071,0.7071,-0.7071,-0.7071,2819.3201,4069.1091)"
         style="fill:none;stroke:black;stroke-width:2;stroke-miterlimit:10"
         width="14"
         height="4"
         id="rect3862" />
      <rect
         x="566.74799"
         y="2619.283"
         transform="matrix(-0.7071,0.7071,-0.7071,-0.7071,2826.1487,4071.9377)"
         style="fill:#ffc007"
         width="6"
         height="4"
         id="rect3864" />
      <rect
         x="566.74799"
         y="2619.283"
         transform="matrix(-0.7071,0.7071,-0.7071,-0.7071,2826.1487,4071.9377)"
         style="fill:none;stroke:black;stroke-width:2;stroke-miterlimit:10"
         width="6"
         height="4"
         id="rect3866" />
      <polygon
         style="fill:#ffc007"
         points="555.695,2603.72 558.625,2605.236 556.163,2607.698 554.647,2604.768 551.717,2603.252 554.18,2600.79 "
         id="polygon3868" />
      <polygon
         style="fill:none;stroke:black;stroke-width:2;stroke-miterlimit:10"
         points="555.695,2603.72 558.625,2605.236 556.163,2607.698 554.647,2604.768 551.717,2603.252 554.18,2600.79 "
         id="polygon3870" />
    </g>
  </g>
</svg>
